Coordinates
version=1
nRows=7
nColumns=40
inDegrees=yes

Units are S.I. units (second, meters, Newtons, ...)
Angles are in degrees.

endheader
time	pelvis_tilt	pelvis_list	pelvis_rotation	pelvis_tx	pelvis_ty	pelvis_tz	hip_flexion_r	hip_adduction_r	hip_rotation_r	knee_angle_r	knee_angle_r_beta	ankle_angle_r	subtalar_angle_r	mtp_angle_r	hip_flexion_l	hip_adduction_l	hip_rotation_l	knee_angle_l	knee_angle_l_beta	ankle_angle_l	subtalar_angle_l	mtp_angle_l	lumbar_extension	lumbar_bending	lumbar_rotation	arm_flex_r	arm_add_r	arm_rot_r	elbow_flex_r	pro_sup_r	wrist_flex_r	wrist_dev_r	arm_flex_l	arm_add_l	arm_rot_l	elbow_flex_l	pro_sup_l	wrist_flex_l	wrist_dev_l
     22.60000000	     -6.91851943	     -5.19834471	     -6.32912029	      0.85396238	      0.92167412	      0.49860865	     22.38709562	      3.40245496	    -12.56193465	     18.38487994	     18.38487994	      4.53930377	     -0.99929154	     -3.17840431	     13.46226233	    -10.63161227	     -7.15925636	     44.46067976	     44.46067976	     12.64199661	    -18.04688865	     -3.74738167	     -9.13864389	      7.38763596	     -0.33295598	     -0.67552368	    -13.10758794	     -9.72520517	     34.51129955	     43.13448132	      0.00000000	      0.00000000	     11.86221860	     -8.69884463	     -4.21941531	     49.49350735	     43.71874508	      0.00000000	      0.00000000
     22.61228571	     -6.78334948	     -5.19246589	     -6.20255887	      0.85449809	      0.92243088	      0.50079027	     21.72221047	      3.41389856	    -12.89677469	     18.32472895	     18.32472895	      4.91351959	     -0.52497941	     -3.61589769	     14.98703391	    -10.93366495	     -6.44266386	     47.91634736	     47.91634736	     11.95504563	    -18.25108320	     -0.90859734	     -9.15381839	      7.42214383	     -0.04223653	     -0.13661835	    -13.44783172	     -7.99230222	     37.22029435	     43.09756386	      0.00000000	      0.00000000	     12.47627310	     -8.04205552	     -4.41236152	     43.85184446	     43.90095104	      0.00000000	      0.00000000
     22.62457143	     -6.68326642	     -5.26609127	     -6.06632743	      0.85480490	      0.92298047	      0.50291891	     21.10809120	      3.52824360	    -13.14110477	     18.27884290	     18.27884290	      5.33325751	     -0.20459008	     -3.83442698	     16.59799183	    -11.27019753	     -5.62171248	     51.27416677	     51.27416677	     11.34716811	    -18.35049237	      2.10749543	     -9.23810048	      7.49983955	      0.25148999	      0.36301547	    -13.90001417	     -6.52912995	     40.15680684	     43.11449596	      0.00000000	      0.00000000	     12.32312011	     -7.58407949	     -4.63069964	     40.46776038	     44.12001499	      0.00000000	      0.00000000
     22.63685714	     -6.56445045	     -5.31595613	     -5.92919401	      0.85493518	      0.92351662	      0.50497914	     20.49654415	      3.62251914	    -13.36295862	     18.25231826	     18.25231826	      5.78381688	      0.04612559	     -3.97401094	     18.07452537	    -11.55821311	     -4.87670953	     54.18762270	     54.18762270	     10.24702344	    -18.51852704	      3.58406900	     -9.34872985	      7.50140951	     -0.01103672	      1.73340546	    -13.98271063	     -6.08203099	     41.96747315	     43.11410256	      0.00000000	      0.00000000	     11.47479825	     -7.57866510	     -4.64945464	     38.22666926	     44.18637130	      0.00000000	      0.00000000
     22.64914286	     -6.61237783	     -5.45435508	     -5.79074074	      0.85478634	      0.92374447	      0.50698706	     20.05024809	      3.83939209	    -13.54144148	     18.16819238	     18.16819238	      6.13213786	      0.24062552	     -4.05986302	     19.73788653	    -11.93998129	     -4.10247174	     56.85058695	     56.85058695	      9.12839915	    -18.59121965	      4.44673392	     -9.30975712	      7.61717950	      0.03480355	      3.00599413	    -14.10550316	     -5.89810088	     43.30071787	     43.09165289	      0.00000000	      0.00000000	     10.53762734	     -7.50908164	     -4.63112704	     36.71084850	     44.19880314	      0.00000000	      0.00000000
     22.66142857	     -6.57666971	     -5.49395741	     -5.69282661	      0.85449465	      0.92414167	      0.50886571	     19.55929590	      3.95146475	    -13.63573310	     18.14286365	     18.14286365	      6.53213248	      0.37184896	     -4.13028942	     21.19061759	    -12.12699294	     -3.39217176	     59.04947566	     59.04947566	      8.29720467	    -18.64514428	      5.48512594	     -9.40174192	      7.59040294	      0.03704633	      4.37518146	    -14.26812968	     -5.66029948	     44.91392996	     43.05247708	      0.00000000	      0.00000000	      9.67378159	     -7.51378012	     -4.62445313	     35.05326599	     44.21082139	      0.00000000	      0.00000000
     22.67371429	     -6.58955494	     -5.40833272	     -5.59577544	      0.85388611	      0.92451357	      0.51051788	     19.19677031	      3.90221132	    -13.74179641	     18.20342111	     18.20342111	      7.00622756	      0.63211499	     -3.84302149	     22.80262523	    -11.98940554	     -2.54023597	     61.12077691	     61.12077691	      9.11237901	    -18.55130783	     10.33463833	     -9.44477011	      7.41284005	      0.70376980	      4.15923247	    -15.42783509	     -3.43610224	     49.92517308	     42.91990997	      0.00000000	      0.00000000	     10.31558945	     -7.11307641	     -5.01391064	     30.36422967	     44.42291794	      0.00000000	      0.00000000
